<svg id="Layer_1" data-name="Layer 1" xmlns="http://www.w3.org/2000/svg" viewBox="0 0 800 800"><defs><style>.cls-1{fill:#ebd2cd;}.cls-2{fill:#faf0cd;}.cls-3{fill:#db5249;}.cls-4{fill:#9f2f26;}</style></defs><title>logo1</title><rect class="cls-1" width="800" height="800" rx="55.22"/><rect class="cls-2" x="36.36" y="414.55" width="349.09" height="349.09" rx="29.09"/><rect class="cls-2" x="422.75" y="36.36" width="349.09" height="349.09" rx="29.09"/><rect class="cls-3" x="36.36" y="36.36" width="349.09" height="349.09" rx="29.09"/><rect class="cls-3" x="414.55" y="414.55" width="349.09" height="349.09" rx="29.09"/><path class="cls-4" d="M209.74,679.05h0a7.26,7.26,0,0,1-7.26-7.26V642.68a7.26,7.26,0,0,1,7.26-7.26h16.36A7.26,7.26,0,0,0,231.21,623l-9.07-9.09a7.25,7.25,0,0,1,0-10.27l0,0a7.25,7.25,0,0,1,10.26,0l29.63,29.63a7.27,7.27,0,0,0,5.14,2.13h87.58l-.12-.12,36-36a7.28,7.28,0,0,1,10.28,0v0a7.26,7.26,0,0,1,0,10.26L387.53,623a7.27,7.27,0,0,0,5.14,12.4h20.71a7.26,7.26,0,0,1,7.26,7.26v29.11a7.26,7.26,0,0,1-7.26,7.26h0a7.26,7.26,0,0,1-7.26-7.26V657.22a7.26,7.26,0,0,0-7.26-7.26H224.26a7.26,7.26,0,0,0-7.26,7.26v14.57A7.26,7.26,0,0,1,209.74,679.05Z" transform="translate(-100.64 -100.31)"/><path class="cls-4" d="M297.29,623.31l-25-35.77A7.26,7.26,0,0,1,274,577.43h0a7.26,7.26,0,0,1,10.12,1.78l25,35.77a7.25,7.25,0,0,1-1.79,10.11h0A7.26,7.26,0,0,1,297.29,623.31Z" transform="translate(-100.64 -100.31)"/><path class="cls-4" d="M435.18,737.22v0a7.26,7.26,0,0,1-7.26,7.26H340.63a7.26,7.26,0,0,0-7.26,7.26v43.66a7.26,7.26,0,0,1-7.26,7.26H282.44a7.27,7.27,0,0,1-7.26-7.26v0a7.27,7.27,0,0,1,7.26-7.26h29.12a7.26,7.26,0,0,0,7.26-7.26V751.77a7.26,7.26,0,0,0-7.26-7.26H195.17a7.26,7.26,0,0,1-7.26-7.26v0a7.26,7.26,0,0,1,7.26-7.26H316.89a7.35,7.35,0,0,0,3.61-1L346,714.44a7.26,7.26,0,0,0-3.6-13.57H231.54a7.26,7.26,0,0,1-7.26-7.26v0a7.26,7.26,0,0,1,7.26-7.26h160a7.26,7.26,0,0,1,7.26,7.26v3.07a7.24,7.24,0,0,1-3.66,6.3L371.65,716.4a7.26,7.26,0,0,0,3.6,13.56h52.67A7.26,7.26,0,0,1,435.18,737.22Z" transform="translate(-100.64 -100.31)"/><path class="cls-4" d="M711.85,599.74h-.56v-7.56A49.75,49.75,0,0,0,711.85,599.74Z" transform="translate(-100.64 -100.31)"/><path class="cls-4" d="M716.24,585.2a5,5,0,0,0-5,4.94v2a49.75,49.75,0,0,0,.56,7.56A54.73,54.73,0,0,0,727.5,630.9a4.94,4.94,0,0,1-2.06,8.31c-17,4.66-31.26,12-41.24,21a5,5,0,0,1-8.34-3.58V590.14a4.94,4.94,0,0,0-4.94-4.94H593.53a4.94,4.94,0,0,0-4.94,4.94v2a49.75,49.75,0,0,0,.55,7.56,55.1,55.1,0,0,0,19.23,34.45,4.94,4.94,0,0,1-1.06,8.29c-12.95,6-21.91,15-24.41,25.52a4.93,4.93,0,0,0,4.84,6h3.07a4.89,4.89,0,0,0,4.72-3.54c3-10.61,19.35-20.94,43.15-22.87,1.1-.09,2.22-.16,3.34-.21a5,5,0,0,0,4.75-4.94v-4.16a5,5,0,0,0-4.53-4.91c-16.83-1.65-30.85-12.44-36.47-27a4.93,4.93,0,0,1,4.66-6.63h45.94a5,5,0,0,1,5,4.94v62.84a5,5,0,0,0,4.94,5h0a5,5,0,0,1,4.58,6.77,36.9,36.9,0,0,0-2,8.12,5,5,0,0,1-4.9,4.42H597.05a5,5,0,0,0-4.94,5v91.93a4.94,4.94,0,0,0,4.94,4.94h4.66a4.94,4.94,0,0,0,4.94-4.94V784a5,5,0,0,1,5-4.94H776.26A4.94,4.94,0,0,1,781.2,784v4.66a4.94,4.94,0,0,0,4.94,4.94h4.66a4.94,4.94,0,0,0,4.94-4.94V696.73a5,5,0,0,0-4.94-5H688.85a5,5,0,0,1-4.72-6.46c6.15-19.92,40.12-35.9,80.48-37.1a5,5,0,0,0,4.87-4.94v-5a5,5,0,0,0-4.53-4.91c-16.84-1.65-30.86-12.43-36.47-27a4.93,4.93,0,0,1,4.65-6.63h60.49a5,5,0,0,1,5,4.94v77.39a4.94,4.94,0,0,0,4.94,4.94h4.66a4.94,4.94,0,0,0,4.94-4.94V590.14a4.94,4.94,0,0,0-4.94-4.94Zm60,179.31H611.6a5,5,0,0,1-5-4.94V747.64a5,5,0,0,1,5-4.95H776.26a5,5,0,0,1,4.94,4.95v11.93A4.94,4.94,0,0,1,776.26,764.51Zm4.94-53.24v11.94a4.94,4.94,0,0,1-4.94,4.94H611.6a5,5,0,0,1-5-4.94V711.27a5,5,0,0,1,5-4.94H776.26A4.94,4.94,0,0,1,781.2,711.27Z" transform="translate(-100.64 -100.31)"/><path class="cls-4" d="M808.38,251.56v-7.3a3.62,3.62,0,0,0-3.62-3.62H761.1a3.63,3.63,0,0,1-3.63-3.63V190.35a3.62,3.62,0,0,0-3.62-3.62h-7.3a3.62,3.62,0,0,0-3.62,3.62V237a3.63,3.63,0,0,1-3.62,3.63H666.55a3.62,3.62,0,0,0-3.62,3.62v7.3a3.62,3.62,0,0,0,3.62,3.62h72.76a3.62,3.62,0,0,1,3.62,3.62v44.66a3.62,3.62,0,0,1-3.62,3.62H723.83a3.62,3.62,0,0,1-3.62-3.62V288.39a3.62,3.62,0,0,0-3.62-3.62h-7.31a3.62,3.62,0,0,0-3.62,3.62v15.07a3.62,3.62,0,0,1-3.62,3.62H686.39a3.62,3.62,0,0,1-3.62-3.62V288.39a3.62,3.62,0,0,0-3.63-3.62h-7.3a3.62,3.62,0,0,0-3.62,3.62v15.07a3.62,3.62,0,0,1-3.62,3.62H649.3a3.62,3.62,0,0,0-3.62,3.62V318a3.62,3.62,0,0,0,3.62,3.62h15.3a3.63,3.63,0,0,1,3.62,3.63V380.8c0,20.05-13,36.57-29.53,38.47a3.61,3.61,0,0,0-3.2,3.58v7.34a3.65,3.65,0,0,0,4,3.63c23.87-2.25,42.74-24.53,43.27-51.83h0V325.25a3.63,3.63,0,0,1,3.62-3.63H702a3.63,3.63,0,0,1,3.62,3.63v76a3.62,3.62,0,0,0,3.62,3.62h7.31a3.62,3.62,0,0,0,3.62-3.62v-76a3.63,3.63,0,0,1,3.62-3.63h15.48a3.63,3.63,0,0,1,3.62,3.63v36a157.93,157.93,0,0,0,4,35.9,3.59,3.59,0,0,1-.79,3.22c-8.76,9.9-19,16.09-30,17.1a3.59,3.59,0,0,0-3.21,3.59v11a3.65,3.65,0,0,0,4,3.62c12.55-.9,24.24-6.1,34.49-14.7a3.59,3.59,0,0,1,5.3.83c5,7.57,11.35,12.18,19,12.18h10.93a3.62,3.62,0,0,0,3.62-3.62V379.44a3.62,3.62,0,0,0-3.62-3.62h0a3.61,3.61,0,0,1-3.45-4.73A176.79,176.79,0,0,0,792,318a3.64,3.64,0,0,0-3.64-3.68H777.39a3.63,3.63,0,0,0-3.61,3.57,155.37,155.37,0,0,1-9.16,50.14,3.64,3.64,0,0,1-7-1.09c-.06-1.85-.1-3.75-.1-5.69V258.8a3.62,3.62,0,0,1,3.63-3.62h43.66A3.62,3.62,0,0,0,808.38,251.56ZM775.65,402.73V412a3.62,3.62,0,0,1-6.6,2.08,41.86,41.86,0,0,1-3.17-5.74,3.56,3.56,0,0,1,.38-3.57q1.43-2,2.77-4A3.61,3.61,0,0,1,775.65,402.73Z" transform="translate(-100.64 -100.31)"/><path class="cls-4" d="M631.13,258.8v30.11a3.62,3.62,0,0,0,3.62,3.62h7.3a3.64,3.64,0,0,1,3.63,3.63v7.3a3.63,3.63,0,0,1-3.63,3.62h-7.3a3.62,3.62,0,0,0-3.62,3.62V430.38a3.62,3.62,0,0,1-3.62,3.62h-7.3a3.62,3.62,0,0,1-3.62-3.62V319.74a3.61,3.61,0,0,0-6.32-2.39c-5.52,6.14-11.85,10.09-18.7,11.21a3.58,3.58,0,0,1-4.08-3.59v-7.61a3.54,3.54,0,0,1,2.78-3.37c11.61-3,23.53-24.3,25.9-54.95a3.62,3.62,0,0,0-3.62-3.86H591.12a3.63,3.63,0,0,1-3.63-3.62v-7.3a3.63,3.63,0,0,1,3.63-3.62H613a3.64,3.64,0,0,0,3.63-3.63V190.35a3.62,3.62,0,0,1,3.62-3.62h7.3a3.62,3.62,0,0,1,3.62,3.62V237a3.63,3.63,0,0,0,3.62,3.63h7.3a3.63,3.63,0,0,1,3.63,3.62v7.3a3.63,3.63,0,0,1-3.63,3.62h-7.3A3.62,3.62,0,0,0,631.13,258.8Z" transform="translate(-100.64 -100.31)"/><path class="cls-4" d="M418.11,327.48v-10a2.27,2.27,0,0,0-2.27-2.27H401.06a2.27,2.27,0,0,1-2.27-2.27v-10a2.27,2.27,0,0,1,2.27-2.27h10a2.28,2.28,0,0,0,2.27-2.28V273.84a2.27,2.27,0,0,0-2.27-2.27h-10a2.27,2.27,0,0,0-2.27,2.27v10a2.27,2.27,0,0,1-2.27,2.27h-10a2.27,2.27,0,0,1-2.27-2.27v-10a2.27,2.27,0,0,0-2.28-2.27H372a2.27,2.27,0,0,0-2.27,2.27v24.54a2.28,2.28,0,0,0,2.27,2.28h10a2.27,2.27,0,0,1,2.28,2.27v10A2.27,2.27,0,0,1,382,315.2h-27a2.27,2.27,0,0,1-2.28-2.27V201.11a2.27,2.27,0,0,0-2.27-2.27h-10a2.27,2.27,0,0,0-2.27,2.27V312.93a2.27,2.27,0,0,1-2.27,2.27H314.93a2.27,2.27,0,0,1-2.28-2.27v-10a2.27,2.27,0,0,1,2.28-2.27h10a2.28,2.28,0,0,0,2.27-2.28V273.84a2.27,2.27,0,0,0-2.27-2.27h-10a2.27,2.27,0,0,0-2.28,2.27v10a2.27,2.27,0,0,1-2.27,2.27h-10a2.27,2.27,0,0,1-2.27-2.27v-10a2.27,2.27,0,0,0-2.27-2.27h-10a2.27,2.27,0,0,0-2.28,2.27v24.54a2.28,2.28,0,0,0,2.28,2.28h10a2.27,2.27,0,0,1,2.27,2.27v10a2.27,2.27,0,0,1-2.27,2.27H274.93a2.28,2.28,0,0,0-2.28,2.27v10a2.28,2.28,0,0,0,2.28,2.27h28.18a2.27,2.27,0,0,1,2.27,2.27v41.36c0,20.43-13.52,37.22-30.54,38.55a2.31,2.31,0,0,0-2.19,2.27v10A2.28,2.28,0,0,0,275,426.5c16-.89,29.87-10.71,37.84-25.11a2.23,2.23,0,0,1,3.57-.43,39.81,39.81,0,0,0,26.7,12.44,2.26,2.26,0,0,0,2.35-2.28V401a2.22,2.22,0,0,0-2.09-2.18,25.58,25.58,0,0,1-23.45-25.46V332a2.26,2.26,0,0,1,2.27-2.27h46.36a2.27,2.27,0,0,1,2.28,2.27v41.36c0,14.35,2.36,27.25,6.4,37.47a2.25,2.25,0,0,1-1.1,2.89,72.16,72.16,0,0,1-28.45,6.54,2.25,2.25,0,0,0-2.22,2.25v10a2.28,2.28,0,0,0,2.32,2.28A85.23,85.23,0,0,0,383.92,426a2.25,2.25,0,0,1,2.7.52c4.88,5.34,10.64,8.33,16.94,8.33h12.28a2.27,2.27,0,0,0,2.27-2.27V378.94a2.27,2.27,0,0,0-2.27-2.27H405.75a2.29,2.29,0,0,0-2.26,2.19c-.56,8.47-4.34,16.3-10.45,22.81a2.3,2.3,0,0,1-3.87-.87,94.28,94.28,0,0,1-3.79-27.42V332a2.27,2.27,0,0,1,2.27-2.27h28.19A2.27,2.27,0,0,0,418.11,327.48ZM403.56,417v.22a2.28,2.28,0,0,1-3.48,1.94l-.14-.1a2.31,2.31,0,0,1-.26-3.67l.06-.05A2.27,2.27,0,0,1,403.56,417Z" transform="translate(-100.64 -100.31)"/><rect class="cls-4" x="290.82" y="206.1" width="29.09" height="14.55" rx="7.27" transform="translate(418.1 -192.3) rotate(90)"/><path class="cls-4" d="M327.2,235.2v14.55a7.28,7.28,0,0,1-7.27,7.27h0a7.28,7.28,0,0,0-7.28,7.27h0a7.27,7.27,0,0,1-7.27,7.28h0a7.27,7.27,0,0,1-7.27-7.28h0a7.28,7.28,0,0,0-7.27-7.27h0a7.28,7.28,0,0,1-7.28-7.27V235.2a7.28,7.28,0,0,1,7.28-7.27h0a7.28,7.28,0,0,1,7.27,7.27h0a7.26,7.26,0,0,0,7.27,7.27h0a7.26,7.26,0,0,0,7.27-7.27h0a7.28,7.28,0,0,1,7.28-7.27h0A7.28,7.28,0,0,1,327.2,235.2Z" transform="translate(-100.64 -100.31)"/><path class="cls-4" d="M413.34,235.2v14.55a7.28,7.28,0,0,1-7.28,7.27h0a7.28,7.28,0,0,0-7.27,7.27h0a7.27,7.27,0,0,1-7.27,7.28h0a7.27,7.27,0,0,1-7.27-7.28h0A7.28,7.28,0,0,0,377,257h0a7.28,7.28,0,0,1-7.27-7.27V235.2a7.28,7.28,0,0,1,7.27-7.27h0a7.28,7.28,0,0,1,7.28,7.27h0a7.26,7.26,0,0,0,7.27,7.27h0a7.26,7.26,0,0,0,7.27-7.27h0a7.28,7.28,0,0,1,7.27-7.27h0A7.28,7.28,0,0,1,413.34,235.2Z" transform="translate(-100.64 -100.31)"/><rect class="cls-4" x="283.61" y="98.53" width="14.55" height="29.09" rx="7.27"/><path class="cls-4" d="M248.62,259.65v30.11a3.63,3.63,0,0,0,3.63,3.62h7.3a3.63,3.63,0,0,1,3.62,3.63v7.3a3.62,3.62,0,0,1-3.62,3.62h-7.3a3.63,3.63,0,0,0-3.63,3.62V431.23a3.62,3.62,0,0,1-3.62,3.62h-7.3a3.62,3.62,0,0,1-3.62-3.62V320.59a3.61,3.61,0,0,0-6.32-2.39c-5.51,6.14-11.85,10.09-18.7,11.21a3.57,3.57,0,0,1-4.07-3.59v-7.61a3.53,3.53,0,0,1,2.78-3.37c11.6-3,23.52-24.3,25.89-54.95A3.62,3.62,0,0,0,230,256H208.61a3.62,3.62,0,0,1-3.62-3.62v-7.3a3.62,3.62,0,0,1,3.62-3.62h21.85a3.63,3.63,0,0,0,3.62-3.63V191.2a3.62,3.62,0,0,1,3.62-3.62H245a3.62,3.62,0,0,1,3.62,3.62v46.66a3.64,3.64,0,0,0,3.63,3.63h7.3a3.62,3.62,0,0,1,3.62,3.62v7.3a3.62,3.62,0,0,1-3.62,3.62h-7.3A3.63,3.63,0,0,0,248.62,259.65Z" transform="translate(-100.64 -100.31)"/></svg>